<svg width="26" height="25" viewBox="0 0 26 25" fill="none" xmlns="http://www.w3.org/2000/svg">
<path d="M13.226 5.02537L13.0634 11.0053H11.5371L11.3703 5.02537H13.226ZM12.3003 13.6741C12.025 13.6741 11.7887 13.5768 11.5913 13.3822C11.394 13.1848 11.2967 12.9485 11.2994 12.6733C11.2967 12.4009 11.394 12.1673 11.5913 11.9727C11.7887 11.7781 12.025 11.6808 12.3003 11.6808C12.5644 11.6808 12.7965 11.7781 12.9967 11.9727C13.1968 12.1673 13.2983 12.4009 13.3011 12.6733C13.2983 12.8568 13.2496 13.025 13.1551 13.1779C13.0634 13.328 12.9425 13.4489 12.7923 13.5407C12.6422 13.6296 12.4782 13.6741 12.3003 13.6741Z" fill="#67B68B"/>
<path d="M12.743 22.9202L8.82864 16.6573H1V1H24.4859V16.6573H16.6573L12.743 22.9202Z" stroke="#67B68B" stroke-width="1.80059"/>
</svg>
