<svg width="9" height="17" viewBox="0 0 9 17" fill="none" xmlns="http://www.w3.org/2000/svg">
<path d="M7.29828 15.5471L6.62667 15.4752C6.01902 15.4192 5.49932 15.0115 5.29944 14.4278C4.87568 12.8607 4.87568 11.1976 5.29944 9.63055C7.15437 9.25477 8.49759 7.6317 8.49759 5.73679C8.49759 4.13771 6.89851 0.140015 6.89851 0.140015H2.10128C2.10128 0.140015 0.502197 4.13771 0.502197 5.73679C0.502197 7.6397 1.83743 9.27076 3.70036 9.65454C4.12411 11.2216 4.12411 12.8847 3.70036 14.4518C3.50847 15.0274 2.99676 15.4352 2.39711 15.4992L1.70151 15.5711C1.70151 15.5711 1.30174 15.5551 1.30174 16.1308H7.69805C7.69805 15.5551 7.29828 15.5471 7.29828 15.5471ZM2.45307 4.13771L3.25261 1.73909H5.74718L6.54672 4.13771H2.45307Z" fill="#67B68B"/>
</svg>
