<svg width="142" height="38" viewBox="0 0 142 38" fill="none" xmlns="http://www.w3.org/2000/svg">
<path d="M53.0268 10.1521C51.8354 10.1521 50.9655 10.7899 50.4173 12.0657C49.869 13.3309 49.5949 15.3816 49.5949 18.2178C49.5949 21.0434 49.869 23.0941 50.4173 24.3699C50.9655 25.6351 51.8354 26.2677 53.0268 26.2677C54.2287 26.2677 55.1038 25.6351 55.6521 24.3699C56.2004 23.0941 56.4745 21.0434 56.4745 18.2178C56.4745 15.3816 56.2004 13.3309 55.6521 12.0657C55.1038 10.7899 54.2287 10.1521 53.0268 10.1521ZM44.7397 18.2178C44.7397 14.1796 45.4355 11.1273 46.8273 9.06081C48.2295 6.9943 50.296 5.96104 53.0268 5.96104C55.7681 5.96104 57.8346 6.9943 59.2263 9.06081C60.6286 11.1273 61.3297 14.1796 61.3297 18.2178C61.3297 22.2454 60.6286 25.2924 59.2263 27.3589C57.8346 29.4254 55.7681 30.4587 53.0268 30.4587C50.296 30.4587 48.2295 29.4254 46.8273 27.3589C45.4355 25.2924 44.7397 22.2454 44.7397 18.2178ZM75.5634 18.8504C76.0273 18.9453 76.4279 19.1667 76.7653 19.5146C77.1132 19.852 77.535 20.5162 78.0305 21.5073L82.3006 30.0001H77.1765L74.3298 24.0377C74.2454 23.8691 74.1347 23.6371 73.9977 23.3419C73.1647 21.56 72.1842 20.6691 71.056 20.6691H69.5694V30.0001H64.904V6.38805H71.6412C74.6777 6.38805 76.8549 6.92577 78.1729 8.0012C79.5013 9.07662 80.1656 10.8268 80.1656 13.2518C80.1656 14.8755 79.7702 16.1671 78.9794 17.1265C78.1887 18.086 77.05 18.6606 75.5634 18.8504ZM69.5694 10.3102V16.747H71.7677C73.0435 16.747 73.9555 16.4992 74.5037 16.0037C75.0625 15.4976 75.3419 14.6699 75.3419 13.5207C75.3419 12.3714 75.0678 11.5491 74.5196 11.0535C73.9713 10.558 73.054 10.3102 71.7677 10.3102H69.5694ZM88.8006 19.2774V26.2677H91.9004C93.387 26.2677 94.4255 26.0146 95.016 25.5086C95.617 25.0025 95.9174 24.1221 95.9174 22.8674C95.9174 21.5917 95.6064 20.6744 94.9843 20.1156C94.3623 19.5568 93.3343 19.2774 91.9004 19.2774H88.8006ZM88.8006 10.073V15.5608H91.9004C93.0813 15.5608 93.9195 15.35 94.415 14.9282C94.9211 14.5065 95.1741 13.8106 95.1741 12.8406C95.1741 11.8706 94.9158 11.1695 94.3992 10.7372C93.8931 10.2944 93.0602 10.073 91.9004 10.073H88.8006ZM84.2933 6.35642H91.9004C94.5257 6.35642 96.4973 6.85723 97.8153 7.85886C99.1437 8.84994 99.808 10.3366 99.808 12.3187C99.808 13.837 99.4179 15.0231 98.6376 15.8771C97.8574 16.7312 96.7135 17.2267 95.2058 17.3638C97.0087 17.543 98.3635 18.1492 99.2703 19.1825C100.188 20.2158 100.646 21.6602 100.646 23.5158C100.646 25.7932 99.9608 27.4433 98.5902 28.466C97.2196 29.4887 94.9896 30.0001 91.9004 30.0001H84.2933V6.35642ZM104.553 10.5V6.38805H118.612V10.5H113.915V25.8881H118.612V30.0001H104.553V25.8881H109.25V10.5H104.553ZM133.431 30.0001H128.765V10.4684H122.772V6.38805H139.425V10.4684H133.431V30.0001Z" fill="#67B68B"/>
<path d="M13.3697 2.58142C10.8113 2.84978 8.61966 3.62356 6.59352 4.96537C3.69968 6.88416 1.54831 9.68407 0.479332 12.9313C-0.0216112 14.452 -0.128956 15.8027 0.152824 16.988C0.506168 18.4819 1.72722 19.4793 3.58786 19.8058C4.24088 19.9221 5.72582 19.9087 6.66508 19.7834C8.96406 19.4748 12.1307 18.5713 14.6981 17.4889C14.9888 17.3682 15.2348 17.2698 15.2482 17.2698C15.2572 17.2698 15.3734 17.2206 15.5032 17.1624C15.6329 17.1043 15.9102 16.9835 16.1204 16.8896C17.0641 16.4736 17.167 16.4244 18.0705 15.9951C18.4909 15.7938 18.8487 15.6059 18.8666 15.5791C18.8845 15.5478 18.8756 15.5344 18.8398 15.5478C18.8085 15.5567 18.4596 15.6596 18.066 15.767C14.0361 16.8985 10.2119 17.319 8.04268 16.8672C6.45039 16.5363 5.50665 15.7759 5.30091 14.6577C5.01913 13.1191 6.01207 10.6368 7.59988 8.90582C9.18322 7.18383 11.0081 6.12827 13.3965 5.55577C13.8304 5.45289 14.6041 5.36791 15.3153 5.34107C17.8513 5.25162 20.3292 6.07013 22.4135 7.6803C23.2588 8.33779 24.3681 9.57226 24.9271 10.4847C25.191 10.9185 25.5623 11.67 25.7814 12.2246C25.8843 12.4929 25.9916 12.7076 26.023 12.7076C26.1035 12.7076 28.635 11.6431 28.6619 11.5939C28.6887 11.5537 28.3532 10.8425 28.0401 10.27C26.9622 8.29753 25.2894 6.46372 23.3572 5.13533C21.8812 4.12003 19.9624 3.28363 18.2091 2.8945C16.6392 2.54116 14.8278 2.42487 13.3697 2.58142Z" fill="#67B68B"/>
<path d="M36.2029 10.1403C35.7243 10.3282 34.6956 10.7218 33.1838 11.2987C32.8394 11.4329 32.2669 11.6521 31.9091 11.7907C31.5513 11.9294 31.0593 12.1217 30.8133 12.2156C29.9948 12.5287 28.7648 13.0252 26.5195 13.9376C25.3163 14.4252 24.0595 14.9619 23.2007 15.351C22.8787 15.4941 22.6014 15.6149 22.588 15.6149C22.5746 15.6149 22.2704 15.7536 21.9081 15.928C21.5503 16.098 21.2462 16.2411 21.2327 16.2411C21.2014 16.2411 18.5804 17.5516 18.2405 17.7394C16.0668 18.9381 14.9218 19.6224 13.5263 20.5483C9.58582 23.1693 7.38077 25.343 6.74565 27.2305C6.58463 27.7002 6.54885 28.3845 6.65619 28.872C6.9335 30.102 8.07851 31.0636 10.0152 31.6853C12.1442 32.3697 14.877 32.553 17.1939 32.1639C21.2909 31.4706 24.9451 29.1225 27.2933 25.6651C28.0626 24.529 28.805 22.9591 29.1897 21.6531C29.5967 20.2486 29.7532 19.2736 29.8024 17.8289C29.8472 16.2992 29.7264 14.9664 29.4267 13.7766C29.4088 13.7006 29.4223 13.6424 29.467 13.6067C29.543 13.544 35.2189 10.7083 36.024 10.3326C36.9498 9.90326 37.0259 9.81828 36.2029 10.1403ZM26.5105 15.7625C26.5418 16.2679 26.4882 17.2206 26.4032 17.7529C26.3227 18.2717 26.0498 19.2512 25.8441 19.7745C24.5247 23.1022 21.6353 25.5264 18.1913 26.1973C17.4801 26.336 16.4112 26.3852 15.8387 26.3091C15.1678 26.2197 14.6623 25.9737 14.4342 25.6293C14.3224 25.4593 14.309 25.4012 14.309 25.0568C14.309 24.7169 14.3269 24.6364 14.4521 24.368C15.123 22.9546 17.7261 20.678 21.4206 18.2762C22.8742 17.3324 26.3093 15.2616 26.4345 15.2571C26.4658 15.2571 26.4926 15.4405 26.5105 15.7625Z" fill="#67B68B"/>
</svg>
