<svg width="25" height="21" viewBox="0 0 25 21" fill="none" xmlns="http://www.w3.org/2000/svg">
<path d="M8.79584 0.698298C7.11269 0.874851 5.67083 1.38392 4.33784 2.26669C2.434 3.52905 1.01862 5.3711 0.31535 7.5074C-0.0142179 8.50788 -0.0848396 9.39653 0.100542 10.1763C0.333005 11.1591 1.13633 11.8153 2.36044 12.0301C2.79005 12.1066 3.76698 12.0978 4.38492 12.0154C5.8974 11.8124 7.98074 11.218 9.66978 10.5059C9.86105 10.4264 10.0229 10.3617 10.0317 10.3617C10.0376 10.3617 10.1141 10.3293 10.1994 10.2911C10.2848 10.2528 10.4672 10.1734 10.6055 10.1116C11.2264 9.83792 11.2941 9.80555 11.8885 9.52306C12.1651 9.39065 12.4005 9.26706 12.4123 9.24941C12.424 9.22881 12.4181 9.21998 12.3946 9.22881C12.374 9.23469 12.1445 9.30237 11.8855 9.37299C9.23428 10.1175 6.71838 10.3941 5.29124 10.0969C4.24368 9.87912 3.6228 9.37888 3.48744 8.64324C3.30206 7.63099 3.95531 5.99787 4.99992 4.85909C6.04159 3.7262 7.24216 3.03176 8.81349 2.65511C9.09892 2.58743 9.60799 2.53152 10.0759 2.51386C11.7443 2.45501 13.3745 2.9935 14.7457 4.05283C15.3019 4.48538 16.0316 5.29753 16.3994 5.89782C16.573 6.18325 16.8173 6.6776 16.9615 7.04248C17.0291 7.21903 17.0998 7.36028 17.1204 7.36028C17.1733 7.36028 18.8388 6.65994 18.8565 6.62758C18.8741 6.60109 18.6534 6.13322 18.4475 5.75658C17.7383 4.4589 16.6378 3.25245 15.3666 2.3785C14.3955 1.71054 13.1332 1.16028 11.9797 0.904277C10.9469 0.671814 9.75511 0.595307 8.79584 0.698298Z" fill="#67B68B"/>
<path d="M23.8176 5.67126C23.5028 5.79485 22.826 6.05379 21.8314 6.43338C21.6048 6.52166 21.2281 6.66585 20.9927 6.75707C20.7573 6.84828 20.4337 6.97482 20.2718 7.03661C19.7333 7.24259 18.9241 7.56921 17.4469 8.1695C16.6554 8.49024 15.8285 8.84335 15.2636 9.09935C15.0517 9.19351 14.8693 9.27296 14.8604 9.27296C14.8516 9.27296 14.6515 9.36418 14.4132 9.47894C14.1777 9.59076 13.9777 9.68492 13.9688 9.68492C13.9482 9.68492 12.2239 10.5471 12.0002 10.6707C10.5702 11.4593 9.81686 11.9095 8.89878 12.5186C6.30637 14.243 4.85569 15.6731 4.43784 16.9148C4.33191 17.2238 4.30837 17.674 4.37899 17.9947C4.56143 18.8039 5.31473 19.4366 6.58886 19.8456C7.98952 20.2958 9.78743 20.4165 11.3117 20.1605C14.0071 19.7044 16.4112 18.1595 17.956 15.8849C18.4621 15.1375 18.9506 14.1047 19.2037 13.2454C19.4714 12.3215 19.5744 11.68 19.6068 10.7295C19.6362 9.72318 19.5568 8.84629 19.3596 8.06357C19.3478 8.01354 19.3567 7.97529 19.3861 7.95175C19.4361 7.91055 23.1702 6.04496 23.6999 5.79779C24.309 5.5153 24.359 5.45939 23.8176 5.67126ZM17.4411 9.37007C17.4617 9.70258 17.4263 10.3293 17.3704 10.6795C17.3175 11.0208 17.138 11.6653 17.0026 12.0096C16.1346 14.1988 14.2337 15.7937 11.9679 16.2351C11.5 16.3263 10.7967 16.3587 10.4201 16.3086C9.9787 16.2498 9.64619 16.088 9.49612 15.8614C9.42256 15.7496 9.41373 15.7113 9.41373 15.4847C9.41373 15.2611 9.4255 15.2081 9.50789 15.0316C9.94928 14.1017 11.6619 12.604 14.0924 11.0238C15.0487 10.4029 17.3086 9.0405 17.391 9.03756C17.4116 9.03756 17.4293 9.1582 17.4411 9.37007Z" fill="#67B68B"/>
</svg>
