<svg width="94" height="25" viewBox="0 0 94 25" fill="none" xmlns="http://www.w3.org/2000/svg">
<path d="M34.8861 6.94216C34.1023 6.94216 33.53 7.36182 33.1693 8.20113C32.8086 9.0335 32.6283 10.3826 32.6283 12.2486C32.6283 14.1075 32.8086 15.4567 33.1693 16.296C33.53 17.1284 34.1023 17.5445 34.8861 17.5445C35.6769 17.5445 36.2526 17.1284 36.6133 16.296C36.974 15.4567 37.1543 14.1075 37.1543 12.2486C37.1543 10.3826 36.974 9.0335 36.6133 8.20113C36.2526 7.36182 35.6769 6.94216 34.8861 6.94216ZM29.434 12.2486C29.434 9.59189 29.8918 7.58378 30.8075 6.22423C31.73 4.86469 33.0896 4.18491 34.8861 4.18491C36.6896 4.18491 38.0491 4.86469 38.9647 6.22423C39.8873 7.58378 40.3486 9.59189 40.3486 12.2486C40.3486 14.8983 39.8873 16.9029 38.9647 18.2625C38.0491 19.622 36.6896 20.3018 34.8861 20.3018C33.0896 20.3018 31.73 19.622 30.8075 18.2625C29.8918 16.9029 29.434 14.8983 29.434 12.2486ZM53.292 11.5618C52.9591 11.2566 52.5671 11.0277 52.1163 10.8751C51.6723 10.7225 51.1833 10.6462 50.6492 10.6462C50.0041 10.6462 49.4388 10.7607 48.9532 10.9896C48.4746 11.2116 48.1035 11.5376 47.8399 11.9676C47.6735 12.2312 47.5556 12.5503 47.4862 12.9249C47.4238 13.2994 47.3925 13.8682 47.3925 14.6312V20.0001H44.344V8.34679H47.3925V10.1572C47.6908 9.49131 48.1486 8.97801 48.766 8.61732C49.3833 8.24968 50.1047 8.06587 50.9301 8.06587C51.3463 8.06587 51.7521 8.11789 52.1475 8.22194C52.5498 8.31905 52.9313 8.46471 53.292 8.65893V11.5618ZM62.9996 14.2046C62.9996 13.0809 62.8123 12.2 62.4377 11.5618C62.0632 10.9237 61.5464 10.6046 60.8874 10.6046C60.2285 10.6046 59.7082 10.9237 59.3267 11.5618C58.9452 12.2 58.7545 13.0809 58.7545 14.2046C58.7545 15.3283 58.9452 16.2093 59.3267 16.8474C59.7082 17.4856 60.2285 17.8047 60.8874 17.8047C61.5464 17.8047 62.0632 17.4856 62.4377 16.8474C62.8123 16.2093 62.9996 15.3283 62.9996 14.2046ZM58.7545 10.0011C59.129 9.35605 59.5626 8.87396 60.0551 8.55489C60.5545 8.22887 61.1163 8.06587 61.7406 8.06587C63.121 8.06587 64.1823 8.59304 64.9245 9.64738C65.6736 10.7017 66.0482 12.2139 66.0482 14.1838C66.0482 16.126 65.6805 17.6313 64.9453 18.6995C64.21 19.7677 63.1765 20.3018 61.8447 20.3018C61.1441 20.3018 60.5337 20.1318 60.0134 19.792C59.4932 19.4521 59.0736 18.9457 58.7545 18.2729V20.0001H55.7163V3.81035H58.7545V10.0011ZM69.2944 8.34679H75.3292V17.659H79.1165V20.0001H68.4829V17.659H72.2806V10.6878H69.2944V8.34679ZM72.2806 2.67623H75.3292V6.23464H72.2806V2.67623ZM87.0136 5.0381V8.34679H90.9986V10.6878H87.0136V16.2023C87.0136 16.7226 87.1385 17.0971 87.3882 17.326C87.6448 17.548 88.068 17.659 88.6576 17.659H90.9986V20.0001H88.4391C86.6911 20.0001 85.5084 19.7226 84.8911 19.1677C84.2737 18.6058 83.9651 17.5688 83.9651 16.0567V10.6878H80.9893V8.34679H83.9651V5.0381H87.0136Z" fill="#67B68B"/>
<path d="M8.79584 1.6983C7.11269 1.87485 5.67083 2.38392 4.33784 3.26669C2.434 4.52905 1.01862 6.3711 0.31535 8.5074C-0.0142179 9.50788 -0.0848396 10.3965 0.100542 11.1763C0.333005 12.1591 1.13633 12.8153 2.36044 13.0301C2.79005 13.1066 3.76698 13.0978 4.38492 13.0154C5.8974 12.8124 7.98074 12.218 9.66978 11.5059C9.86105 11.4264 10.0229 11.3617 10.0317 11.3617C10.0376 11.3617 10.1141 11.3293 10.1994 11.2911C10.2848 11.2528 10.4672 11.1734 10.6055 11.1116C11.2264 10.8379 11.2941 10.8056 11.8885 10.5231C12.1651 10.3906 12.4005 10.2671 12.4123 10.2494C12.424 10.2288 12.4181 10.22 12.3946 10.2288C12.374 10.2347 12.1445 10.3024 11.8855 10.373C9.23428 11.1175 6.71838 11.3941 5.29124 11.0969C4.24368 10.8791 3.6228 10.3789 3.48744 9.64324C3.30206 8.63099 3.95531 6.99787 4.99992 5.85909C6.04159 4.7262 7.24216 4.03176 8.81349 3.65511C9.09892 3.58743 9.60799 3.53152 10.0759 3.51386C11.7443 3.45501 13.3745 3.9935 14.7457 5.05283C15.3019 5.48538 16.0316 6.29753 16.3994 6.89782C16.573 7.18325 16.8173 7.6776 16.9615 8.04248C17.0291 8.21903 17.0998 8.36028 17.1204 8.36028C17.1733 8.36028 18.8388 7.65994 18.8565 7.62758C18.8741 7.60109 18.6534 7.13322 18.4475 6.75658C17.7383 5.4589 16.6378 4.25245 15.3666 3.3785C14.3955 2.71054 13.1332 2.16028 11.9797 1.90428C10.9469 1.67181 9.75511 1.59531 8.79584 1.6983Z" fill="#67B68B"/>
<path d="M23.8176 6.67126C23.5028 6.79485 22.826 7.05379 21.8314 7.43338C21.6048 7.52166 21.2281 7.66585 20.9927 7.75707C20.7573 7.84828 20.4337 7.97482 20.2718 8.03661C19.7333 8.24259 18.9241 8.56921 17.4469 9.1695C16.6554 9.49024 15.8285 9.84335 15.2636 10.0994C15.0517 10.1935 14.8693 10.273 14.8604 10.273C14.8516 10.273 14.6515 10.3642 14.4132 10.4789C14.1777 10.5908 13.9777 10.6849 13.9688 10.6849C13.9482 10.6849 12.2239 11.5471 12.0002 11.6707C10.5702 12.4593 9.81686 12.9095 8.89878 13.5186C6.30637 15.243 4.85569 16.6731 4.43784 17.9148C4.33191 18.2238 4.30837 18.674 4.37899 18.9947C4.56143 19.8039 5.31473 20.4366 6.58886 20.8456C7.98952 21.2958 9.78743 21.4165 11.3117 21.1605C14.0071 20.7044 16.4112 19.1595 17.956 16.8849C18.4621 16.1375 18.9506 15.1047 19.2037 14.2454C19.4714 13.3215 19.5744 12.68 19.6068 11.7295C19.6362 10.7232 19.5568 9.84629 19.3596 9.06357C19.3478 9.01354 19.3567 8.97529 19.3861 8.95175C19.4361 8.91055 23.1702 7.04496 23.6999 6.79779C24.309 6.5153 24.359 6.45939 23.8176 6.67126ZM17.4411 10.3701C17.4617 10.7026 17.4263 11.3293 17.3704 11.6795C17.3175 12.0208 17.138 12.6653 17.0026 13.0096C16.1346 15.1988 14.2337 16.7937 11.9679 17.2351C11.5 17.3263 10.7967 17.3587 10.4201 17.3086C9.9787 17.2498 9.64619 17.088 9.49612 16.8614C9.42256 16.7496 9.41373 16.7113 9.41373 16.4847C9.41373 16.2611 9.4255 16.2081 9.50789 16.0316C9.94928 15.1017 11.6619 13.604 14.0924 12.0238C15.0487 11.4029 17.3086 10.0405 17.391 10.0376C17.4116 10.0376 17.4293 10.1582 17.4411 10.3701Z" fill="#67B68B"/>
</svg>
