<svg width="9" height="21" viewBox="0 0 9 21" fill="none" xmlns="http://www.w3.org/2000/svg">
<path d="M2.50102 0.140137V2.13921H3.4106C3.15072 3.92837 1.50149 5.63758 0.501953 7.13688V11.9047C1.82134 13.0941 1.82134 15.1731 0.501953 16.3626V18.1318C0.501953 19.2412 1.40153 20.1308 2.50102 20.1308H6.49916C7.60865 20.1308 8.49823 19.2412 8.49823 18.1318V16.3626C7.17885 15.1731 7.17885 13.0941 8.49823 11.9047V7.13688C7.4987 5.63758 5.84947 3.92837 5.58959 2.13921H6.49916V0.140137M4.50009 4.63804C4.73998 5.13781 6.03938 6.63711 6.39921 7.04692L6.49916 7.13688V11.135C5.84947 12.0046 5.49963 13.0541 5.49963 14.1336C5.49963 15.2131 5.84947 16.2626 6.49916 17.1322V18.1318H2.50102V17.1322C3.15072 16.2626 3.50056 15.2131 3.50056 14.1336C3.50056 13.0541 3.15072 12.0046 2.50102 11.135V7.13688L2.60098 7.04692C2.96081 6.63711 4.2602 5.13781 4.50009 4.63804Z" fill="#67B68B"/>
</svg>
