<svg width="17" height="12" viewBox="0 0 17 12" fill="none" xmlns="http://www.w3.org/2000/svg">
<path d="M14.4936 0.642547C13.4933 0.609751 12.5012 1.38046 12.1897 2.61032C11.7797 4.25013 11.7797 4.25013 10.9598 5.07004C9.31999 6.70985 6.86028 7.52976 1.94084 8.34967C1.12093 8.48085 0.710979 8.75962 0.301025 9.16957C1.94084 9.16957 3.58065 9.16957 2.35079 10.3994L1.12093 11.6293H3.58065L5.22046 9.98948C6.86028 10.8094 7.95075 10.8094 9.59056 9.98948L10.1399 11.6293H12.5996L11.7797 9.16957C11.7797 9.16957 12.5996 5.88995 13.4195 5.07004C14.2394 4.25013 14.2394 5.07004 15.0593 5.07004C15.8792 5.07004 16.6992 4.25013 16.6992 3.02028C16.6992 2.61032 16.6992 1.79042 15.4693 0.97051C15.1823 0.773733 14.8462 0.658946 14.4936 0.642547ZM6.04037 0.97051C4.73565 0.97051 3.48438 1.48881 2.5618 2.41138C1.63923 3.33395 1.12093 4.58523 1.12093 5.88995C1.12093 6.38189 1.22752 6.77545 1.30951 7.2018C6.16335 6.39829 8.73786 5.55379 10.0825 4.20094L10.4925 3.79099C9.68075 2.06918 7.94255 0.97051 6.04037 0.97051Z" fill="#67B68B"/>
</svg>
